<?xml version="1.0" encoding="UTF-8"?>
<svg width="24" height="24" version="1.1" viewBox="0 0 24 24" xmlns="http://www.w3.org/2000/svg">
 <circle cx="12.052" cy="10.146" r="9.249" fill="#fff" stroke-miterlimit="50"/>
 <path d="m12 0c-5.522 0-10 4.395-10 9.815 0 5.505 4.375 9.268 10 14.185 5.625-4.917 10-8.68 10-14.185 0-5.42-4.478-9.815-10-9.815zm0 18c-4.419 0-8-3.582-8-8s3.581-8 8-8 8 3.582 8 8-3.581 8-8 8z"/>
 <path d="m12.434 14.419-4.3328-0.0061v-4.331l3.8949-3.47c0.48784 0.43358 0.97654 0.86717 1.4661 1.3012l0.97871 0.8676c0.48914 0.43358 0.97741 0.86456 1.4652 1.2981v4.3402l-2.6011-0.0061-3e-3 -2.164h-0.86804zm2.6041-0.86804 0.0082-3.0906-3.0503-2.6879-3.0342 2.6987v3.0798h2.6041v-2.1701h2.6041v2.1701zm-4.3402-2.1701v1.3021h-0.86804v-1.3021zm1.3021-6.5103 5.2082 4.624-0.57638 0.64842-4.6318-4.118-4.6318 4.118-0.57638-0.64842z" stroke-width=".43402"/>
</svg>