<?xml version="1.0" encoding="UTF-8"?>
<svg width="24" height="24" version="1.1" viewBox="0 0 24 24" xmlns="http://www.w3.org/2000/svg">
 <circle cx="12.052" cy="10.146" r="9.249" fill="#fff" stroke-miterlimit="50"/>
 <path d="m12 0c-5.522 0-10 4.395-10 9.815 0 5.505 4.375 9.268 10 14.185 5.625-4.917 10-8.68 10-14.185 0-5.42-4.478-9.815-10-9.815zm0 18c-4.419 0-8-3.582-8-8s3.581-8 8-8 8 3.582 8 8-3.581 8-8 8z"/>
 <path d="m8.5645 10.433h-1.7626v-0.86636h1.7626c-0.01776 0.14208-0.02989 0.28633-0.02989 0.43318s0.01213 0.2911 0.02989 0.43318zm1.3143-3.1674-1.248-1.248-0.61252 0.61252 1.248 1.248c0.17804-0.22915 0.38336-0.43448 0.61252-0.61252zm4.8555 0.61252 1.248-1.248-0.61252-0.61252-1.248 1.248c0.22872 0.17804 0.43405 0.3838 0.61252 0.61252zm-2.7342-1.3437c0.14685 0 0.2911 0.01213 0.43318 0.02989v-1.7626h-0.86636v1.7626c0.14208-0.01776 0.28633-0.02989 0.43318-0.02989zm0 6.9309c-0.14685 0-0.2911-0.01213-0.43318-0.02989v1.7626h0.86636v-1.7626c-0.14208 0.01776-0.28633 0.02989-0.43318 0.02989zm3.4355-3.8986c0.01776 0.14208 0.02989 0.28633 0.02989 0.43318s-0.01213 0.2911-0.02989 0.43318h1.7626v-0.86636zm-1.3138 3.1674 1.2476 1.2476 0.61295-0.61252-1.2476-1.2476c-0.17847 0.22872-0.3838 0.43405-0.61295 0.61252zm-4.8559-0.61295-1.2476 1.2476 0.61252 0.61252 1.2476-1.2476c-0.22872-0.17804-0.43448-0.38336-0.61252-0.61252zm1.0015-2.1213c0 0.9556 0.77712 1.7327 1.7327 1.7327 0.9556 0 1.7327-0.77712 1.7327-1.7327 0-0.95559-0.77712-1.7327-1.7327-1.7327-0.95559 0-1.7327 0.77712-1.7327 1.7327zm4.3318 0c0 1.4356-1.1635 2.5991-2.5991 2.5991-1.4356 0-2.5991-1.1635-2.5991-2.5991 0-1.4356 1.1635-2.5991 2.5991-2.5991 1.4356 0 2.5991 1.1635 2.5991 2.5991z" stroke-width=".43318"/>
</svg>